<?xml version="1.0" encoding="UTF-8"?>
<svg id="Capa_2" xmlns="http://www.w3.org/2000/svg" viewBox="0 0 997.31 180.48">
  <defs>
    <style>
      .cls-1 {
        fill: #fff;
      }
    </style>
  </defs>
  <g id="Capa_1-2">
    <g id="Capa_2-2">
      <g id="Capa_1-2-2" data-name="Capa_1-2">
        <path class="cls-1" d="M651.5,13.73c-10.85-.35-19.93,8.16-20.29,19.01-.35,10.85,8.16,19.93,19.01,20.29.42,0,.85,0,1.27,0V13.73h0Z"/>
        <path class="cls-1" d="M651.5,92.33c10.85-.35,19.36-9.43,19.01-20.29-.34-10.36-8.65-18.68-19.01-19.01v39.3Z"/>
        <path class="cls-1" d="M651.5,92.33c-10.85,0-19.64,8.78-19.65,19.63,0,10.85,8.78,19.64,19.63,19.65h.02v-39.28Z"/>
        <path class="cls-1" d="M651.5,153.86c6.13,0,11.11-4.98,11.1-11.11,0-6.13-4.97-11.1-11.1-11.1v22.22h0Z"/>
        <path class="cls-1" d="M600.2,166.76c10.85-.35,19.36-9.43,19.01-20.29-.34-10.36-8.65-18.68-19.01-19.01v39.3Z"/>
        <path class="cls-1" d="M600.2,88.16c-10.85-.35-19.93,8.16-20.29,19.01-.35,10.85,8.16,19.93,19.01,20.29.42.01.85.01,1.27,0v-39.3h0Z"/>
        <path class="cls-1" d="M600.2,88.16c10.85,0,19.64-8.79,19.64-19.64s-8.79-19.64-19.64-19.64v39.28Z"/>
        <path class="cls-1" d="M600.2,26.67c-6.13,0-11.11,4.98-11.1,11.11,0,6.13,4.97,11.1,11.1,11.1v-22.22h0Z"/>
        <path class="cls-1" d="M549.77,13.98c-10.85.35-19.36,9.43-19.01,20.29.34,10.36,8.65,18.68,19.01,19.01V13.98Z"/>
        <path class="cls-1" d="M549.77,92.57c10.85.35,19.93-8.16,20.29-19.01s-8.16-19.93-19.01-20.29c-.42,0-.85,0-1.27,0v39.3h0Z"/>
        <path class="cls-1" d="M549.77,92.57c-10.85,0-19.64,8.79-19.64,19.64s8.79,19.64,19.64,19.64v-39.28Z"/>
        <path class="cls-1" d="M699.6,26.09h29v6.43h-21.99v17h18.69v6.62h-18.69v23.7h-7.01V26.09Z"/>
        <path class="cls-1" d="M757.13,41.05h6.62v38.78h-5.94l-.37-5.32c-1.92,4.1-6.19,6.57-10.7,6.18-3.52.21-6.93-1.23-9.23-3.89-2.3-3.06-3.45-6.83-3.24-10.65v-25.1h6.62v24.01c-.18,2.45.51,4.88,1.94,6.88,1.35,1.6,3.37,2.47,5.46,2.35,2.55.09,4.97-1.09,6.47-3.15,1.77-2.48,2.64-5.49,2.47-8.53,0,0-.1-21.56-.1-21.56Z"/>
        <path class="cls-1" d="M792.68,40.21c3.54-.19,6.97,1.26,9.29,3.94,2.34,3.02,3.52,6.79,3.32,10.61v25.08h-6.7v-24.01c.14-2.43-.59-4.82-2.06-6.76-1.37-1.59-3.39-2.46-5.48-2.37-2.58-.04-5.02,1.22-6.49,3.34-1.79,2.66-2.66,5.83-2.49,9.03v20.77h-6.7v-38.78h5.94l.37,5.32c2.09-4.09,6.43-6.52,11-6.16h0Z"/>
        <path class="cls-1" d="M844.28,23.68h6.62v56.16h-5.91l-.39-5.69c-2.98,4.37-8.04,6.85-13.31,6.53-4.99.18-9.8-1.91-13.07-5.69-3.4-4.07-5.18-9.25-5.01-14.55-.15-5.26,1.63-10.39,5.01-14.43,3.29-3.8,8.12-5.92,13.15-5.77,5.89,0,10.2,2.06,12.92,6.18v-22.75h-.01ZM832.37,46.52c-3.39-.09-6.64,1.35-8.84,3.94-2.4,2.76-3.65,6.34-3.48,9.99-.16,3.67,1.04,7.27,3.36,10.12,2.21,2.59,5.48,4.02,8.88,3.89,3.23.02,6.32-1.36,8.47-3.77,2.45-2.68,3.74-6.22,3.61-9.85v-.39c.17-3.7-1.13-7.32-3.61-10.08-2.12-2.42-5.17-3.83-8.39-3.85h0Z"/>
        <path class="cls-1" d="M875.84,40.21c3.74-.22,7.42,1.09,10.18,3.63,2.59,2.78,3.92,6.51,3.67,10.3v25.7h-6l-.31-5.32c-1.11,1.92-2.74,3.48-4.7,4.51-2.18,1.13-4.61,1.69-7.07,1.65-3.03.15-6-.92-8.24-2.97-2.1-2.1-3.21-4.99-3.07-7.95,0-6.1,3.61-9.84,10.84-11.23l11.85-2.25v-1.92c0-5.33-2.38-8-7.15-8-2.08-.1-4.11.57-5.73,1.88-1.49,1.3-2.3,3.22-2.21,5.19h-6.53c.03-3.58,1.52-7,4.12-9.46,2.81-2.58,6.53-3.93,10.35-3.77h0ZM882.99,63.52v-1.44l-10.61,2.29c-1.5.3-2.91.95-4.12,1.9-.93.88-1.43,2.14-1.34,3.42-.08,1.37.48,2.7,1.53,3.59,1.27.92,2.82,1.36,4.39,1.26,3.1.14,6.06-1.3,7.85-3.83,1.52-2.08,2.33-4.59,2.31-7.17v-.02Z"/>
        <path class="cls-1" d="M916.29,40.21c4.01-.12,7.96,1.07,11.23,3.4,3.13,2.31,5.27,5.71,6.02,9.52h-6.64c-.7-2.07-2.1-3.83-3.96-4.99-1.98-1.21-4.26-1.82-6.57-1.77-3.36-.06-6.56,1.41-8.7,4-2.3,2.87-3.5,6.48-3.38,10.16-.11,3.64,1.12,7.2,3.46,9.99,2.15,2.6,5.38,4.07,8.76,4,2.32.04,4.59-.6,6.55-1.83,1.82-1.14,3.18-2.88,3.83-4.93h6.7c-.85,3.82-3.05,7.2-6.18,9.54-3.26,2.3-7.18,3.48-11.17,3.38-5.12.15-10.06-1.92-13.54-5.69-3.59-3.93-5.49-9.11-5.3-14.43-.18-5.35,1.72-10.57,5.3-14.55,3.48-3.8,8.43-5.91,13.58-5.81h0Z"/>
        <path class="cls-1" d="M950.54,29.14c.02,1.18-.44,2.31-1.28,3.13-.88.85-2.05,1.32-3.28,1.3-1.21.03-2.38-.44-3.24-1.3-.85-.83-1.32-1.97-1.3-3.15-.06-2.45,1.88-4.48,4.33-4.53h.21c1.22-.02,2.4.45,3.28,1.3.86.86,1.32,2.04,1.28,3.26h0ZM942.63,41.05h6.62v38.78h-6.62v-38.78Z"/>
        <path class="cls-1" d="M977.76,40.21c5.26-.17,10.35,1.91,13.99,5.71,3.75,3.88,5.76,9.13,5.54,14.53.21,5.4-1.79,10.66-5.54,14.55-3.67,3.8-8.79,5.87-14.08,5.69-5.33.19-10.5-1.88-14.24-5.69-3.68-3.93-5.65-9.17-5.46-14.55-.19-5.38,1.78-10.61,5.46-14.53,3.75-3.85,8.96-5.92,14.32-5.71h.01ZM977.76,46.39c-3.57-.14-7.02,1.33-9.4,4-2.37,2.8-3.59,6.39-3.4,10.06-.13,3.69,1.14,7.28,3.54,10.08,2.37,2.68,5.82,4.15,9.4,4,3.5.14,6.87-1.34,9.15-4,2.41-2.79,3.67-6.39,3.54-10.08.15-3.69-1.12-7.3-3.54-10.08-2.3-2.67-5.69-4.14-9.21-4l-.08.02h0ZM982.44,23.54h8.78l-11,12.16h-6.31l8.53-12.16h0Z"/>
        <path class="cls-1" d="M700.63,100.1h29.02v6.55h-22.01v17h18.69v6.62h-18.69v23.6h-7.01v-53.77Z"/>
        <path class="cls-1" d="M745.16,103.25c.03,1.2-.46,2.35-1.34,3.15-.86.87-2.05,1.35-3.28,1.32-1.21.03-2.38-.45-3.21-1.32-.86-.82-1.34-1.96-1.32-3.15-.01-2.49,2-4.52,4.49-4.53h.04c1.23-.03,2.41.45,3.28,1.32.89.83,1.37,2,1.34,3.21h0ZM737.25,115.18h6.62v38.68h-6.62v-38.68Z"/>
        <path class="cls-1" d="M766.78,114.34c3.36-.12,6.63,1.09,9.09,3.38,2.4,2.32,3.74,5.52,3.69,8.86h-6.78c.4-2.97-1.68-5.69-4.65-6.09-.51-.07-1.02-.06-1.53.01-1.59-.11-3.16.4-4.39,1.42-1.04.98-1.6,2.37-1.52,3.79-.09,1.33.46,2.61,1.48,3.46,1.79,1.05,3.76,1.75,5.81,2.06,3.57.59,6.94,2.06,9.81,4.27,1.98,1.92,3.03,4.6,2.89,7.36.14,3.31-1.25,6.49-3.77,8.63-6.03,4.33-14.17,4.25-20.11-.19-2.54-2.39-3.96-5.74-3.89-9.23h6.78c0,4.31,2.51,6.47,7.54,6.47,1.76.1,3.49-.4,4.93-1.42,1.16-.92,1.81-2.34,1.75-3.81.08-1.47-.55-2.89-1.69-3.81-1.94-1.22-4.1-2.04-6.37-2.41-3.26-.54-6.35-1.86-9.01-3.83-1.93-1.84-2.95-4.43-2.8-7.09-.05-3.09,1.17-6.07,3.38-8.24,2.51-2.42,5.89-3.72,9.38-3.59h-.02Z"/>
        <path class="cls-1" d="M802.95,114.34c6.95-.7,13.16,4.37,13.86,11.32.09.87.08,1.74,0,2.61v25.6h-6l-.39-5.21c-1.11,1.91-2.74,3.47-4.7,4.49-2.19,1.14-4.62,1.7-7.09,1.65-3.03.16-6-.9-8.24-2.95-2.1-2.1-3.22-5-3.07-7.98,0-6.18,3.61-9.83,10.84-11.23l11.85-2.23v-1.92c0-5.33-2.38-8-7.15-8-2.08-.1-4.11.57-5.73,1.88-1.49,1.3-2.3,3.22-2.21,5.19h-6.53c.03-3.58,1.51-7,4.12-9.46,2.84-2.6,6.6-3.96,10.45-3.77h0ZM810.1,137.64v-1.46l-10.61,2.31c-1.5.3-2.92.95-4.12,1.9-.94.88-1.44,2.14-1.34,3.42-.08,1.36.49,2.68,1.53,3.57,1.27.92,2.82,1.37,4.39,1.28,3.1.14,6.06-1.31,7.85-3.85,1.52-2.07,2.33-4.58,2.31-7.15v-.02Z"/>
        <path class="cls-1" d="M827.72,97.79h6.62v22.67c2.72-4.12,7.03-6.18,12.92-6.18,5.02-.19,9.84,1.94,13.09,5.77,3.43,4.01,5.24,9.15,5.07,14.43.15,5.26-1.63,10.39-5.01,14.43-3.27,3.78-8.07,5.87-13.07,5.69-5.28.32-10.34-2.16-13.31-6.53l-.39,5.81h-5.91v-56.09ZM846.26,120.64c-3.24,0-6.32,1.41-8.45,3.85-2.46,2.76-3.73,6.38-3.54,10.08v.37c-.16,3.62,1.11,7.16,3.54,9.85,4.45,4.78,11.94,5.05,16.72.6.24-.22.47-.46.7-.7,2.33-2.84,3.52-6.45,3.36-10.12.16-3.66-1.08-7.24-3.46-10.02-2.22-2.58-5.48-4.02-8.88-3.92h.02,0Z"/>
        <path class="cls-1" d="M882.1,103.25c.02,1.19-.47,2.34-1.34,3.15-.87.87-2.05,1.34-3.28,1.32-1.19.03-2.34-.42-3.19-1.26-.85-.83-1.32-1.97-1.3-3.15-.03-2.47,1.94-4.5,4.41-4.53h.12c1.23-.02,2.41.45,3.28,1.32.85.83,1.32,1.97,1.3,3.15h0ZM874.29,115.18h6.59v38.68h-6.59v-38.68Z"/>
        <path class="cls-1" d="M909.32,114.34c5.29-.18,10.4,1.88,14.08,5.69,3.75,3.9,5.74,9.15,5.52,14.55.19,5.36-1.81,10.56-5.52,14.43-3.66,3.84-8.77,5.95-14.08,5.79-5.34.19-10.5-1.87-14.24-5.69-3.67-3.89-5.63-9.08-5.46-14.43-.2-5.39,1.77-10.63,5.46-14.55,3.72-3.85,8.89-5.96,14.24-5.79ZM909.32,120.52c-3.57-.15-7.01,1.32-9.38,4-2.45,2.77-3.72,6.39-3.54,10.08-.13,3.69,1.14,7.28,3.54,10.08,2.37,2.66,5.81,4.12,9.38,3.98,3.5.12,6.88-1.35,9.17-4,2.39-2.8,3.65-6.4,3.52-10.08.17-3.69-1.09-7.3-3.52-10.08-2.29-2.66-5.66-4.13-9.17-4v.02h0Z"/>
      </g>
    </g>
    <path class="cls-1" d="M404.36,123l5.92-14.45,5.9,14.45h-11.82ZM409.45,98l-15.45,37.36h5.34l3.05-7.5h15.73l3,7.5h5.35l-15.38-37.36h-1.64,0ZM359.39,98h-1.64v37.33h5v-26.15l23.44,26.66h1.65v-37.34h-5v26.17l-23.45-26.67h0ZM229.39,98h-1.64v37.34h5v-26.16l23.45,26.66h1.64v-37.33h-5v26.16l-23.45-26.67h0ZM218.12,98.48h-23v36.86h23.68v-4.83h-18.44v-8.18h15.86v-4.78h-15.86v-14.21h17.76v-4.86h0ZM138.54,123l5.92-14.45,5.91,14.45h-11.83ZM143.63,98l-15.43,37.36h5.35l3-7.5h15.74l3,7.5h5.35l-15.36-37.36h-1.65ZM11,136.22l44.3,44.26c3.58.02,7.15-.32,10.67-1l-49.08-49.1-5.89,5.84ZM43.58,179.22L5.85,141.42l-5.85,5.84,17.69,17.74c7.11,7.11,16.11,12.05,25.93,14.23M12.59,27.7c-3.2,4.72-3.73,4.83-3.73,4.83,1.86.5,3.84-.24,4.91-1.84,3.23-4.69,3.76-4.84,3.76-4.84-1.87-.52-3.87.23-4.94,1.85M28.64,11.22c0-.93-.76-1.69-1.69-1.69s-1.69.76-1.69,1.69.76,1.69,1.69,1.69h.05c.93,0,1.69-.76,1.69-1.69h0M48.77,72.93h3.76v-3.19h-3.76v-3.74h-3.18v3.75h-3.75v3.19h3.75v3.75h1.09v4.87h1v-4.88h1.09v-3.75ZM66.7,92.17l-15.47,15.42-3.55-3.54c-6-6-7.67-13.44-8.27-22.71-.28-4.29-.41-9-.41-14.26v-9.14h16.26v9.14c0,9.62,3.52,17.28,11.44,25.09M58.14,50.3l-1.84,4.45H17.37l-1.84-4.45c4.6,1.95,9.94.33,12.67-3.86,3.11,4.77,9.49,6.11,14.25,3.01,1.2-.78,2.23-1.81,3.01-3.01,2.74,4.19,8.08,5.81,12.68,3.86M53.91,36.41c-1.83,3.61-2.19,7.79-1,11.66-2.59-.41-4.77-2.17-5.71-4.62,1.07-.98,1.14-2.65.16-3.72s-2.65-1.14-3.72-.16-1.14,2.65-.16,3.72c.05.05.1.11.16.16-1.46,3.78-5.7,5.67-9.49,4.21-1.94-.75-3.47-2.28-4.21-4.21,1.07-.98,1.14-2.65.16-3.72s-2.65-1.14-3.72-.16-1.14,2.65-.16,3.72c.05.05.1.11.16.16-1.08,2.84-3.81,4.71-6.85,4.71-.34,0-.67-.03-1-.09.06-2.6.55-5.17,1.47-7.61,2.9-7.46,12.35-11.18,16.7-14.28,1.21-.85,3.64-3.27,3.58-6.46-.03-3.65-2.98-6.6-6.63-6.63-3.42,0-8.39,3.85-10.75,6.18-.57-.94-1.45-1.65-2.5-2,1.89-3.42,3.08-7.19,3.51-11.07,1.47.62,3.05.94,4.65.94,2.64,0,5.21-.88,7.3-2.5,2.53,2.57,6,4.02,9.61,4h.85c.35,3.69,2.11,7.1,4.91,9.52-1.64,1.37-3.06,2.97-4.23,4.76-1.93,3.02-4.6,5.5-7.74,7.22-1.09.59-2.27,1.01-3.5,1.23.23,1.04.34,2.11.34,3.18,0,1.91-.33,3.8-1,5.58l2.76,1.06c.79-2.12,1.17-4.38,1.14-6.64v-.81c2.73-1.07,6.82-3.5,10.59-9,3.09-4.56,6.57-6.37,9.37-7-1.73,4.08-1.65,8.7.24,12.71-2.27,1.5-4.1,3.57-5.32,6M18.52,57.94h17.29v9.14c0,2.72,0,8.41.42,14.47s1.23,11.65,3.62,16.78l-8.42,4.22v-32.81H12.69s5.83-11.8,5.83-11.8ZM12.62,72.94h15.63v31.22l-9.17,4.61c.23-5.05.31-12.51-.72-18.23-1.26-6.06-3.19-11.96-5.74-17.6M51.23,112.1l20-20-1.32-1.24c-8.03-7.56-11.47-14.67-11.47-23.78v-9.76l5.49-13.32c1.36-.5,2.06-2.01,1.56-3.38s-2.01-2.06-3.38-1.56c-1.03.38-1.72,1.36-1.72,2.47,0,.63.23,1.23.64,1.7-.8,2.28-2.67,4.03-5,4.67-2.47-6.53.82-13.82,7.35-16.29,0,0,.03-.01.04-.02-4.08-5.18-3.48-12.63,1.38-17.09-3.79-.77-7.74-.09-11.06,1.9-3.53-2.67-5.19-7.15-4.25-11.48-1.27.52-2.63.8-4,.8-3.95,0-7.56-2.21-9.36-5.72-1.65,2.59-4.5,4.16-7.57,4.17-3.04,0-5.86-1.54-7.51-4.09.67,7.42-1.56,16.15-7.88,20.79l1.72,2.28c1.06-.79,2.06-1.65,3-2.58.32-.41.8-.64,1.32-.64.82.02,1.47.68,1.47,1.5-.01.33-.11.66-.28.94-.44.91-.68,1.91-.68,2.92s.21,1.94.63,2.82l2.55-1.21c-1.2-2.59.86-5,4.13-7.44,2.35-1.74,4.82-3.38,6.62-3.39,2.01-.01,3.65,1.61,3.66,3.62v.03c0,2.26-2.24,4.07-4,5.15-6.45,4.08-13,7-16,14.22-1,2.5-1.61,5.15-1.79,7.84-1.33-.91-2.35-2.21-2.93-3.71.97-1.08.88-2.75-.21-3.71-1.08-.97-2.75-.88-3.71.21-.44.5-.68,1.14-.67,1.81,0,1.1.69,2.09,1.72,2.48l5.52,13.38-6.89,14s5.21,10.45,6.88,19.74c1.61,9,.31,23,.31,23l25.8-13c1.15,1.88,2.52,3.62,4.08,5.18,4.34,4.35,5.81,5.81,5.81,5.81M56.67,126l-17.67-17.71-5.84,5.84,37.74,37.77c-2.18-9.81-7.12-18.8-14.23-25.9M71.16,174.28c.69-3.51,1.02-7.09,1-10.67l-44.23-44.28-5.84,5.84,49.07,49.11ZM114.07,82.4c6.58,0,10.85-1.84,14.78-5.4v-12.81h-15.6v4.81h10.56v5.6c-2.5,2-5.69,2.91-9.74,2.91-8,0-13.85-5.87-13.85-14s5.69-13.95,13.24-13.95c6.42,0,8.91,2.87,10.85,5l3.69-3.4c-3.29-3.86-7.6-6.44-14.47-6.44-10.25-.05-18.6,8.22-18.65,18.47v.36c0,10.75,8.25,18.85,19.19,18.85M115.36,135.84l15.45-37.33h-5.61l-10.65,26.49-10.66-26.49h-5.6l15.43,37.33h1.64ZM137.86,82h23.67v-4.85h-18.48v-8.15h15.85v-4.81h-15.85v-14.19h17.76v-4.87h-22.95v36.87ZM172.1,98.51h-5.19v36.85h21.46v-4.83h-16.27v-32.02h0ZM198.88,82.51h1.64v-37.38h-5v26.16l-23.44-26.64h-1.64v37.35h5v-26.19s23.44,26.7,23.44,26.7ZM210.82,82h23.68v-4.85h-18.5v-8.15h15.85v-4.81h-15.85v-14.19h17.76v-4.87h-23l.06,36.87h0ZM253,67h-4.4v-17h4.4c6.9,0,10.24,2.8,10.24,8.56s-3.39,8.44-10.24,8.44M268.8,82l-7.94-11.65c4.84-1.88,7.93-6.64,7.69-11.82,0-8.39-5.76-13.39-15.4-13.39h-9.74v36.86h5.19v-10.2h4.55c.82.01,1.63-.03,2.44-.13l6.91,10.33s6.3,0,6.3,0ZM284,98.1c-10.62,0-18.63,8.09-18.63,18.83s8,18.85,18.74,18.85c6.35.23,12.36-2.85,15.89-8.13l-4.14-2.92c-2.57,3.93-6.99,6.26-11.69,6.16-7.82,0-13.49-5.87-13.49-13.95s5.68-14,13.23-14c4.4-.13,8.56,2.03,11,5.7l4.07-2.93c-3.38-4.92-9.02-7.78-14.98-7.61M295.53,69.65h-11.84l5.91-14.46,5.93,14.46ZM300.53,81.99h5.35l-15.46-37.34h-1.64l-15.43,37.35h5.35l3-7.51h15.73l3.1,7.5h0ZM312.87,98.51h-5.24v36.86h5.24s0-36.86,0-36.86ZM312.05,82h21.46v-4.85h-16.27v-32h-5.19v36.85ZM340.32,82h5.24v-36.87h-5.24v36.87ZM341.21,123h-11.81l5.9-14.45,5.91,14.45ZM346.21,135.34h5.36l-15.45-37.34h-1.63l-15.49,37.36h5.35l3.05-7.5h15.73l3.08,7.48h0ZM368.41,50h10.82v-4.87h-26.87v4.87h10.86v32h5.19v-32ZM399.09,69.69h-11.82l5.9-14.46,5.92,14.46ZM409.43,82l-15.43-37.35h-1.64l-15.44,37.35h5.35l3-7.51h15.73l3,7.51h5.43ZM434.35,50v-4.87h-27.28v4.87h10.87v32h5.19v-32h11.22Z"/>
  </g>
</svg>