<?xml version="1.0"?>
<svg xmlns="http://www.w3.org/2000/svg" viewBox="498 8 168 165"><g fill="#ffffff">
<path d="M651.5,13.73c-10.85-.35-19.93,8.16-20.29,19.01-.35,10.85,8.16,19.93,19.01,20.29.42,0,.85,0,1.27,0V13.73h0Z"></path>
<path d="M651.5,92.33c10.85-.35,19.36-9.43,19.01-20.29-.34-10.36-8.65-18.68-19.01-19.01v39.3Z"></path>
<path d="M651.5,92.33c-10.85,0-19.64,8.78-19.65,19.63,0,10.85,8.78,19.64,19.63,19.65h.02v-39.28Z"></path>
<path d="M651.5,153.86c6.13,0,11.11-4.98,11.1-11.11,0-6.13-4.97-11.1-11.1-11.1v22.22h0Z"></path>
<path d="M600.2,166.76c10.85-.35,19.36-9.43,19.01-20.29-.34-10.36-8.65-18.68-19.01-19.01v39.3Z"></path>
<path d="M600.2,88.16c-10.85-.35-19.93,8.16-20.29,19.01-.35,10.85,8.16,19.93,19.01,20.29.42.01.85.01,1.27,0v-39.3h0Z"></path>
<path d="M600.2,88.16c10.85,0,19.64-8.79,19.64-19.64s-8.79-19.64-19.64-19.64v39.28Z"></path>
<path d="M600.2,26.67c-6.13,0-11.11,4.98-11.1,11.11,0,6.13,4.97,11.1,11.1,11.1v-22.22h0Z"></path>
<path d="M549.77,13.98c-10.85.35-19.36,9.43-19.01,20.29.34,10.36,8.65,18.68,19.01,19.01V13.98Z"></path>
<path d="M549.77,92.57c10.85.35,19.93-8.16,20.29-19.01s-8.16-19.93-19.01-20.29c-.42,0-.85,0-1.27,0v39.3h0Z"></path>
<path d="M549.77,92.57c-10.85,0-19.64,8.79-19.64,19.64s8.79,19.64,19.64,19.64v-39.28Z"></path>
</g></svg>