<?xml version="1.0"?>
<svg xmlns="http://www.w3.org/2000/svg" viewBox="498 0 500 180"><g fill="#1d0f44">
<path d="M651.5,13.73c-10.85-.35-19.93,8.16-20.29,19.01-.35,10.85,8.16,19.93,19.01,20.29.42,0,.85,0,1.27,0V13.73h0Z"></path>
<path d="M651.5,92.33c10.85-.35,19.36-9.43,19.01-20.29-.34-10.36-8.65-18.68-19.01-19.01v39.3Z"></path>
<path d="M651.5,92.33c-10.85,0-19.64,8.78-19.65,19.63,0,10.85,8.78,19.64,19.63,19.65h.02v-39.28Z"></path>
<path d="M651.5,153.86c6.13,0,11.11-4.98,11.1-11.11,0-6.13-4.97-11.1-11.1-11.1v22.22h0Z"></path>
<path d="M600.2,166.76c10.85-.35,19.36-9.43,19.01-20.29-.34-10.36-8.65-18.68-19.01-19.01v39.3Z"></path>
<path d="M600.2,88.16c-10.85-.35-19.93,8.16-20.29,19.01-.35,10.85,8.16,19.93,19.01,20.29.42.01.85.01,1.27,0v-39.3h0Z"></path>
<path d="M600.2,88.16c10.85,0,19.64-8.79,19.64-19.64s-8.79-19.64-19.64-19.64v39.28Z"></path>
<path d="M600.2,26.67c-6.13,0-11.11,4.98-11.1,11.11,0,6.13,4.97,11.1,11.1,11.1v-22.22h0Z"></path>
<path d="M549.77,13.98c-10.85.35-19.36,9.43-19.01,20.29.34,10.36,8.65,18.68,19.01,19.01V13.98Z"></path>
<path d="M549.77,92.57c10.85.35,19.93-8.16,20.29-19.01s-8.16-19.93-19.01-20.29c-.42,0-.85,0-1.27,0v39.3h0Z"></path>
<path d="M549.77,92.57c-10.85,0-19.64,8.79-19.64,19.64s8.79,19.64,19.64,19.64v-39.28Z"></path>
<path d="M699.6,26.09h29v6.43h-21.99v17h18.69v6.62h-18.69v23.7h-7.01V26.09Z"></path>
<path d="M757.13,41.05h6.62v38.78h-5.94l-.37-5.32c-1.92,4.1-6.19,6.57-10.7,6.18-3.52.21-6.93-1.23-9.23-3.89-2.3-3.06-3.45-6.83-3.24-10.65v-25.1h6.62v24.01c-.18,2.45.51,4.88,1.94,6.88,1.35,1.6,3.37,2.47,5.46,2.35,2.55.09,4.97-1.09,6.47-3.15,1.77-2.48,2.64-5.49,2.47-8.53,0,0-.1-21.56-.1-21.56Z"></path>
<path d="M792.68,40.21c3.54-.19,6.97,1.26,9.29,3.94,2.34,3.02,3.52,6.79,3.32,10.61v25.08h-6.7v-24.01c.14-2.43-.59-4.82-2.06-6.76-1.37-1.59-3.39-2.46-5.48-2.37-2.58-.04-5.02,1.22-6.49,3.34-1.79,2.66-2.66,5.83-2.49,9.03v20.77h-6.7v-38.78h5.94l.37,5.32c2.09-4.09,6.43-6.52,11-6.16h0Z"></path>
<path d="M844.28,23.68h6.62v56.16h-5.91l-.39-5.69c-2.98,4.37-8.04,6.85-13.31,6.53-4.99.18-9.8-1.91-13.07-5.69-3.4-4.07-5.18-9.25-5.01-14.55-.15-5.26,1.63-10.39,5.01-14.43,3.29-3.8,8.12-5.92,13.15-5.77,5.89,0,10.2,2.06,12.92,6.18v-22.75h-.01ZM832.37,46.52c-3.39-.09-6.64,1.35-8.84,3.94-2.4,2.76-3.65,6.34-3.48,9.99-.16,3.67,1.04,7.27,3.36,10.12,2.21,2.59,5.48,4.02,8.88,3.89,3.23.02,6.32-1.36,8.47-3.77,2.45-2.68,3.74-6.22,3.61-9.85v-.39c.17-3.7-1.13-7.32-3.61-10.08-2.12-2.42-5.17-3.83-8.39-3.85h0Z"></path>
<path d="M875.84,40.21c3.74-.22,7.42,1.09,10.18,3.63,2.59,2.78,3.92,6.51,3.67,10.3v25.7h-6l-.31-5.32c-1.11,1.92-2.74,3.48-4.7,4.51-2.18,1.13-4.61,1.69-7.07,1.65-3.03.15-6-.92-8.24-2.97-2.1-2.1-3.21-4.99-3.07-7.95,0-6.1,3.61-9.84,10.84-11.23l11.85-2.25v-1.92c0-5.33-2.38-8-7.15-8-2.08-.1-4.11.57-5.73,1.88-1.49,1.3-2.3,3.22-2.21,5.19h-6.53c.03-3.58,1.52-7,4.12-9.46,2.81-2.58,6.53-3.93,10.35-3.77h0ZM882.99,63.52v-1.44l-10.61,2.29c-1.5.3-2.91.95-4.12,1.9-.93.88-1.43,2.14-1.34,3.42-.08,1.37.48,2.7,1.53,3.59,1.27.92,2.82,1.36,4.39,1.26,3.1.14,6.06-1.3,7.85-3.83,1.52-2.08,2.33-4.59,2.31-7.17v-.02Z"></path>
<path d="M916.29,40.21c4.01-.12,7.96,1.07,11.23,3.4,3.13,2.31,5.27,5.71,6.02,9.52h-6.64c-.7-2.07-2.1-3.83-3.96-4.99-1.98-1.21-4.26-1.82-6.57-1.77-3.36-.06-6.56,1.41-8.7,4-2.3,2.87-3.5,6.48-3.38,10.16-.11,3.64,1.12,7.2,3.46,9.99,2.15,2.6,5.38,4.07,8.76,4,2.32.04,4.59-.6,6.55-1.83,1.82-1.14,3.18-2.88,3.83-4.93h6.7c-.85,3.82-3.05,7.2-6.18,9.54-3.26,2.3-7.18,3.48-11.17,3.38-5.12.15-10.06-1.92-13.54-5.69-3.59-3.93-5.49-9.11-5.3-14.43-.18-5.35,1.72-10.57,5.3-14.55,3.48-3.8,8.43-5.91,13.58-5.81h0Z"></path>
<path d="M950.54,29.14c.02,1.18-.44,2.31-1.28,3.13-.88.85-2.05,1.32-3.28,1.3-1.21.03-2.38-.44-3.24-1.3-.85-.83-1.32-1.97-1.3-3.15-.06-2.45,1.88-4.48,4.33-4.53h.21c1.22-.02,2.4.45,3.28,1.3.86.86,1.32,2.04,1.28,3.26h0ZM942.63,41.05h6.62v38.78h-6.62v-38.78Z"></path>
<path d="M977.76,40.21c5.26-.17,10.35,1.91,13.99,5.71,3.75,3.88,5.76,9.13,5.54,14.53.21,5.4-1.79,10.66-5.54,14.55-3.67,3.8-8.79,5.87-14.08,5.69-5.33.19-10.5-1.88-14.24-5.69-3.68-3.93-5.65-9.17-5.46-14.55-.19-5.38,1.78-10.61,5.46-14.53,3.75-3.85,8.96-5.92,14.32-5.71h.01ZM977.76,46.39c-3.57-.14-7.02,1.33-9.4,4-2.37,2.8-3.59,6.39-3.4,10.06-.13,3.69,1.14,7.28,3.54,10.08,2.37,2.68,5.82,4.15,9.4,4,3.5.14,6.87-1.34,9.15-4,2.41-2.79,3.67-6.39,3.54-10.08.15-3.69-1.12-7.3-3.54-10.08-2.3-2.67-5.69-4.14-9.21-4l-.08.02h0ZM982.44,23.54h8.78l-11,12.16h-6.31l8.53-12.16h0Z"></path>
<path d="M700.63,100.1h29.02v6.55h-22.01v17h18.69v6.62h-18.69v23.6h-7.01v-53.77Z"></path>
<path d="M745.16,103.25c.03,1.2-.46,2.35-1.34,3.15-.86.87-2.05,1.35-3.28,1.32-1.21.03-2.38-.45-3.21-1.32-.86-.82-1.34-1.96-1.32-3.15-.01-2.49,2-4.52,4.49-4.53h.04c1.23-.03,2.41.45,3.28,1.32.89.83,1.37,2,1.34,3.21h0ZM737.25,115.18h6.62v38.68h-6.62v-38.68Z"></path>
<path d="M766.78,114.34c3.36-.12,6.63,1.09,9.09,3.38,2.4,2.32,3.74,5.52,3.69,8.86h-6.78c.4-2.97-1.68-5.69-4.65-6.09-.51-.07-1.02-.06-1.53.01-1.59-.11-3.16.4-4.39,1.42-1.04.98-1.6,2.37-1.52,3.79-.09,1.33.46,2.61,1.48,3.46,1.79,1.05,3.76,1.75,5.81,2.06,3.57.59,6.94,2.06,9.81,4.27,1.98,1.92,3.03,4.6,2.89,7.36.14,3.31-1.25,6.49-3.77,8.63-6.03,4.33-14.17,4.25-20.11-.19-2.54-2.39-3.96-5.74-3.89-9.23h6.78c0,4.31,2.51,6.47,7.54,6.47,1.76.1,3.49-.4,4.93-1.42,1.16-.92,1.81-2.34,1.75-3.81.08-1.47-.55-2.89-1.69-3.81-1.94-1.22-4.1-2.04-6.37-2.41-3.26-.54-6.35-1.86-9.01-3.83-1.93-1.84-2.95-4.43-2.8-7.09-.05-3.09,1.17-6.07,3.38-8.24,2.51-2.42,5.89-3.72,9.38-3.59h-.02Z"></path>
<path d="M802.95,114.34c6.95-.7,13.16,4.37,13.86,11.32.09.87.08,1.74,0,2.61v25.6h-6l-.39-5.21c-1.11,1.91-2.74,3.47-4.7,4.49-2.19,1.14-4.62,1.7-7.09,1.65-3.03.16-6-.9-8.24-2.95-2.1-2.1-3.22-5-3.07-7.98,0-6.18,3.61-9.83,10.84-11.23l11.85-2.23v-1.92c0-5.33-2.38-8-7.15-8-2.08-.1-4.11.57-5.73,1.88-1.49,1.3-2.3,3.22-2.21,5.19h-6.53c.03-3.58,1.51-7,4.12-9.46,2.84-2.6,6.6-3.96,10.45-3.77h0ZM810.1,137.64v-1.46l-10.61,2.31c-1.5.3-2.92.95-4.12,1.9-.94.88-1.44,2.14-1.34,3.42-.08,1.36.49,2.68,1.53,3.57,1.27.92,2.82,1.37,4.39,1.28,3.1.14,6.06-1.31,7.85-3.85,1.52-2.07,2.33-4.58,2.31-7.15v-.02Z"></path>
<path d="M827.72,97.79h6.62v22.67c2.72-4.12,7.03-6.18,12.92-6.18,5.02-.19,9.84,1.94,13.09,5.77,3.43,4.01,5.24,9.15,5.07,14.43.15,5.26-1.63,10.39-5.01,14.43-3.27,3.78-8.07,5.87-13.07,5.69-5.28.32-10.34-2.16-13.31-6.53l-.39,5.81h-5.91v-56.09ZM846.26,120.64c-3.24,0-6.32,1.41-8.45,3.85-2.46,2.76-3.73,6.38-3.54,10.08v.37c-.16,3.62,1.11,7.16,3.54,9.85,4.45,4.78,11.94,5.05,16.72.6.24-.22.47-.46.7-.7,2.33-2.84,3.52-6.45,3.36-10.12.16-3.66-1.08-7.24-3.46-10.02-2.22-2.58-5.48-4.02-8.88-3.92h.02,0Z"></path>
<path d="M882.1,103.25c.02,1.19-.47,2.34-1.34,3.15-.87.87-2.05,1.34-3.28,1.32-1.19.03-2.34-.42-3.19-1.26-.85-.83-1.32-1.97-1.3-3.15-.03-2.47,1.94-4.5,4.41-4.53h.12c1.23-.02,2.41.45,3.28,1.32.85.83,1.32,1.97,1.3,3.15h0ZM874.29,115.18h6.59v38.68h-6.59v-38.68Z"></path>
<path d="M909.32,114.34c5.29-.18,10.4,1.88,14.08,5.69,3.75,3.9,5.74,9.15,5.52,14.55.19,5.36-1.81,10.56-5.52,14.43-3.66,3.84-8.77,5.95-14.08,5.79-5.34.19-10.5-1.87-14.24-5.69-3.67-3.89-5.63-9.08-5.46-14.43-.2-5.39,1.77-10.63,5.46-14.55,3.72-3.85,8.89-5.96,14.24-5.79ZM909.32,120.52c-3.57-.15-7.01,1.32-9.38,4-2.45,2.77-3.72,6.39-3.54,10.08-.13,3.69,1.14,7.28,3.54,10.08,2.37,2.66,5.81,4.12,9.38,3.98,3.5.12,6.88-1.35,9.17-4,2.39-2.8,3.65-6.4,3.52-10.08.17-3.69-1.09-7.3-3.52-10.08-2.29-2.66-5.66-4.13-9.17-4v.02h0Z"></path>
</g></svg>